<mxfile host="65bd71144e">
    <diagram id="C5RBs43oDa-KdzZeNtuy" name="Page-1">
        <mxGraphModel dx="456" dy="1667" grid="1" gridSize="10" guides="1" tooltips="1" connect="1" arrows="1" fold="1" page="1" pageScale="1" pageWidth="827" pageHeight="1169" background="none" math="0" shadow="0">
            <root>
                <mxCell id="WIyWlLk6GJQsqaUBKTNV-0"/>
                <mxCell id="WIyWlLk6GJQsqaUBKTNV-1" parent="WIyWlLk6GJQsqaUBKTNV-0"/>
                <mxCell id="zkfFHV4jXpPFQw0GAbJ--0" value="abstract class Computer" style="swimlane;fontStyle=2;align=center;verticalAlign=top;childLayout=stackLayout;horizontal=1;startSize=26;horizontalStack=0;resizeParent=1;resizeLast=0;collapsible=1;marginBottom=0;rounded=1;shadow=0;strokeWidth=1;swimlaneFillColor=default;" parent="WIyWlLk6GJQsqaUBKTNV-1" vertex="1">
                    <mxGeometry x="300" y="585" width="180" height="220" as="geometry">
                        <mxRectangle x="230" y="140" width="160" height="26" as="alternateBounds"/>
                    </mxGeometry>
                </mxCell>
                <mxCell id="zkfFHV4jXpPFQw0GAbJ--2" value="- MotherBoard _motherBoard;&#10;- Keyboard _keyboard;&#10;- Mouse _mouse;&#10;- Monitor _monitor;" style="text;align=left;verticalAlign=top;spacingLeft=4;spacingRight=4;overflow=hidden;rotatable=0;points=[[0,0.5],[1,0.5]];portConstraint=eastwest;rounded=1;shadow=0;html=0;fillColor=none;" parent="zkfFHV4jXpPFQw0GAbJ--0" vertex="1">
                    <mxGeometry y="26" width="180" height="64" as="geometry"/>
                </mxCell>
                <mxCell id="zkfFHV4jXpPFQw0GAbJ--4" value="" style="line;html=1;strokeWidth=1;align=left;verticalAlign=middle;spacingTop=-1;spacingLeft=3;spacingRight=3;rotatable=0;labelPosition=right;points=[];portConstraint=eastwest;rounded=1;" parent="zkfFHV4jXpPFQw0GAbJ--0" vertex="1">
                    <mxGeometry y="90" width="180" height="8" as="geometry"/>
                </mxCell>
                <mxCell id="zkfFHV4jXpPFQw0GAbJ--5" value="+bool turnOn();&#10;+bool turnOff();&#10;+String dashboard()&#10;+MotherBoard get motherBoard&#10;+Keyboard get keyboard&#10;+Mouse get mouse&#10;+Monitor get monitor" style="text;align=left;verticalAlign=top;spacingLeft=4;spacingRight=4;overflow=hidden;rotatable=0;points=[[0,0.5],[1,0.5]];portConstraint=eastwest;rounded=1;fillColor=none;" parent="zkfFHV4jXpPFQw0GAbJ--0" vertex="1">
                    <mxGeometry y="98" width="180" height="122" as="geometry"/>
                </mxCell>
                <mxCell id="zkfFHV4jXpPFQw0GAbJ--6" value="ComputerXL" style="swimlane;fontStyle=0;align=center;verticalAlign=top;childLayout=stackLayout;horizontal=1;startSize=26;horizontalStack=0;resizeParent=1;resizeLast=0;collapsible=1;marginBottom=0;rounded=1;shadow=0;strokeWidth=1;swimlaneFillColor=default;" parent="WIyWlLk6GJQsqaUBKTNV-1" vertex="1">
                    <mxGeometry x="180" y="1010" width="220" height="140" as="geometry">
                        <mxRectangle x="130" y="380" width="160" height="26" as="alternateBounds"/>
                    </mxGeometry>
                </mxCell>
                <mxCell id="zkfFHV4jXpPFQw0GAbJ--7" value="-CoolingSystem _cs;&#10;-UPS _ups;" style="text;align=left;verticalAlign=top;spacingLeft=4;spacingRight=4;overflow=hidden;rotatable=0;points=[[0,0.5],[1,0.5]];portConstraint=eastwest;rounded=1;" parent="zkfFHV4jXpPFQw0GAbJ--6" vertex="1">
                    <mxGeometry y="26" width="220" height="44" as="geometry"/>
                </mxCell>
                <mxCell id="zkfFHV4jXpPFQw0GAbJ--9" value="" style="line;html=1;strokeWidth=1;align=left;verticalAlign=middle;spacingTop=-1;spacingLeft=3;spacingRight=3;rotatable=0;labelPosition=right;points=[];portConstraint=eastwest;rounded=1;" parent="zkfFHV4jXpPFQw0GAbJ--6" vertex="1">
                    <mxGeometry y="70" width="220" height="8" as="geometry"/>
                </mxCell>
                <mxCell id="zkfFHV4jXpPFQw0GAbJ--11" value="+CoolingSystem get coolingSystem;&#10;+UPS get ups;" style="text;align=left;verticalAlign=top;spacingLeft=4;spacingRight=4;overflow=hidden;rotatable=0;points=[[0,0.5],[1,0.5]];portConstraint=eastwest;rounded=1;" parent="zkfFHV4jXpPFQw0GAbJ--6" vertex="1">
                    <mxGeometry y="78" width="220" height="62" as="geometry"/>
                </mxCell>
                <mxCell id="zkfFHV4jXpPFQw0GAbJ--12" value="" style="endArrow=block;endSize=10;endFill=0;shadow=0;strokeWidth=1;rounded=1;edgeStyle=elbowEdgeStyle;elbow=vertical;" parent="WIyWlLk6GJQsqaUBKTNV-1" source="zkfFHV4jXpPFQw0GAbJ--6" target="zkfFHV4jXpPFQw0GAbJ--0" edge="1">
                    <mxGeometry width="160" relative="1" as="geometry">
                        <mxPoint x="270" y="356" as="sourcePoint"/>
                        <mxPoint x="270" y="356" as="targetPoint"/>
                        <Array as="points">
                            <mxPoint x="340" y="980"/>
                            <mxPoint x="390" y="990"/>
                        </Array>
                    </mxGeometry>
                </mxCell>
                <mxCell id="qpAeISLTV_BrQSAtecfo-7" value="Extends" style="edgeLabel;html=1;align=center;verticalAlign=middle;resizable=0;points=[];rounded=1;" parent="zkfFHV4jXpPFQw0GAbJ--12" vertex="1" connectable="0">
                    <mxGeometry x="-0.3139" y="1" relative="1" as="geometry">
                        <mxPoint x="1" y="-40" as="offset"/>
                    </mxGeometry>
                </mxCell>
                <mxCell id="zkfFHV4jXpPFQw0GAbJ--16" value="" style="endArrow=block;endSize=10;endFill=0;shadow=0;strokeWidth=1;rounded=1;edgeStyle=elbowEdgeStyle;elbow=vertical;" parent="WIyWlLk6GJQsqaUBKTNV-1" source="qpAeISLTV_BrQSAtecfo-0" target="zkfFHV4jXpPFQw0GAbJ--0" edge="1">
                    <mxGeometry width="160" relative="1" as="geometry">
                        <mxPoint x="480" y="553" as="sourcePoint"/>
                        <mxPoint x="380" y="424" as="targetPoint"/>
                        <Array as="points">
                            <mxPoint x="440" y="970"/>
                            <mxPoint x="390" y="990"/>
                            <mxPoint x="500" y="760"/>
                            <mxPoint x="420" y="750"/>
                            <mxPoint x="400" y="763"/>
                        </Array>
                    </mxGeometry>
                </mxCell>
                <mxCell id="qpAeISLTV_BrQSAtecfo-6" value="Extends" style="edgeLabel;html=1;align=center;verticalAlign=middle;resizable=0;points=[];rounded=1;" parent="zkfFHV4jXpPFQw0GAbJ--16" vertex="1" connectable="0">
                    <mxGeometry x="0.1472" y="1" relative="1" as="geometry">
                        <mxPoint as="offset"/>
                    </mxGeometry>
                </mxCell>
                <mxCell id="qpAeISLTV_BrQSAtecfo-0" value="ComputerCS" style="swimlane;fontStyle=0;align=center;verticalAlign=top;childLayout=stackLayout;horizontal=1;startSize=26;horizontalStack=0;resizeParent=1;resizeLast=0;collapsible=1;marginBottom=0;rounded=1;shadow=0;strokeWidth=1;swimlaneFillColor=default;" parent="WIyWlLk6GJQsqaUBKTNV-1" vertex="1">
                    <mxGeometry x="414" y="1010" width="220" height="143" as="geometry">
                        <mxRectangle x="130" y="380" width="160" height="26" as="alternateBounds"/>
                    </mxGeometry>
                </mxCell>
                <mxCell id="qpAeISLTV_BrQSAtecfo-1" value="-CoolingSystem _coolingSystem;" style="text;align=left;verticalAlign=top;spacingLeft=4;spacingRight=4;overflow=hidden;rotatable=0;points=[[0,0.5],[1,0.5]];portConstraint=eastwest;rounded=1;" parent="qpAeISLTV_BrQSAtecfo-0" vertex="1">
                    <mxGeometry y="26" width="220" height="24" as="geometry"/>
                </mxCell>
                <mxCell id="qpAeISLTV_BrQSAtecfo-3" value="" style="line;html=1;strokeWidth=1;align=left;verticalAlign=middle;spacingTop=-1;spacingLeft=3;spacingRight=3;rotatable=0;labelPosition=right;points=[];portConstraint=eastwest;rounded=1;" parent="qpAeISLTV_BrQSAtecfo-0" vertex="1">
                    <mxGeometry y="50" width="220" height="8" as="geometry"/>
                </mxCell>
                <mxCell id="qpAeISLTV_BrQSAtecfo-5" value="+CoolingSystem get coolingSystem;" style="text;align=left;verticalAlign=top;spacingLeft=4;spacingRight=4;overflow=hidden;rotatable=0;points=[[0,0.5],[1,0.5]];portConstraint=eastwest;rounded=1;" parent="qpAeISLTV_BrQSAtecfo-0" vertex="1">
                    <mxGeometry y="58" width="220" height="26" as="geometry"/>
                </mxCell>
                <mxCell id="qpAeISLTV_BrQSAtecfo-12" value="«interface»&#10;ICoolingSystem" style="swimlane;fontStyle=1;align=center;verticalAlign=top;childLayout=stackLayout;horizontal=1;startSize=40;horizontalStack=0;resizeParent=1;resizeParentMax=0;resizeLast=0;collapsible=1;marginBottom=0;rounded=1;swimlaneFillColor=default;" parent="WIyWlLk6GJQsqaUBKTNV-1" vertex="1">
                    <mxGeometry x="490" y="870" width="230" height="66" as="geometry"/>
                </mxCell>
                <mxCell id="qpAeISLTV_BrQSAtecfo-15" value="+ bool coolDown(int temp);" style="text;strokeColor=none;fillColor=none;align=left;verticalAlign=top;spacingLeft=4;spacingRight=4;overflow=hidden;rotatable=0;points=[[0,0.5],[1,0.5]];portConstraint=eastwest;rounded=1;" parent="qpAeISLTV_BrQSAtecfo-12" vertex="1">
                    <mxGeometry y="40" width="230" height="26" as="geometry"/>
                </mxCell>
                <mxCell id="qpAeISLTV_BrQSAtecfo-17" value="" style="endArrow=block;dashed=1;endFill=0;endSize=12;html=1;rounded=1;" parent="WIyWlLk6GJQsqaUBKTNV-1" source="qpAeISLTV_BrQSAtecfo-0" target="qpAeISLTV_BrQSAtecfo-12" edge="1">
                    <mxGeometry width="160" relative="1" as="geometry">
                        <mxPoint x="390" y="833" as="sourcePoint"/>
                        <mxPoint x="630" y="863" as="targetPoint"/>
                        <Array as="points"/>
                    </mxGeometry>
                </mxCell>
                <mxCell id="qpAeISLTV_BrQSAtecfo-20" value="implements" style="edgeLabel;html=1;align=center;verticalAlign=middle;resizable=0;points=[];rounded=1;" parent="qpAeISLTV_BrQSAtecfo-17" vertex="1" connectable="0">
                    <mxGeometry x="-0.0662" relative="1" as="geometry">
                        <mxPoint as="offset"/>
                    </mxGeometry>
                </mxCell>
                <mxCell id="qpAeISLTV_BrQSAtecfo-18" value="" style="endArrow=block;dashed=1;endFill=0;endSize=12;html=1;rounded=1;" parent="WIyWlLk6GJQsqaUBKTNV-1" source="zkfFHV4jXpPFQw0GAbJ--6" target="qpAeISLTV_BrQSAtecfo-12" edge="1">
                    <mxGeometry width="160" relative="1" as="geometry">
                        <mxPoint x="390" y="669" as="sourcePoint"/>
                        <mxPoint x="550" y="669" as="targetPoint"/>
                    </mxGeometry>
                </mxCell>
                <mxCell id="qpAeISLTV_BrQSAtecfo-19" value="implements" style="edgeLabel;html=1;align=center;verticalAlign=middle;resizable=0;points=[];rounded=1;" parent="qpAeISLTV_BrQSAtecfo-18" vertex="1" connectable="0">
                    <mxGeometry x="0.2123" relative="1" as="geometry">
                        <mxPoint as="offset"/>
                    </mxGeometry>
                </mxCell>
                <mxCell id="qpAeISLTV_BrQSAtecfo-21" value="«interface»&#10;IPower" style="swimlane;fontStyle=1;align=center;verticalAlign=top;childLayout=stackLayout;horizontal=1;startSize=40;horizontalStack=0;resizeParent=1;resizeParentMax=0;resizeLast=0;collapsible=1;marginBottom=0;rounded=1;swimlaneFillColor=default;" parent="WIyWlLk6GJQsqaUBKTNV-1" vertex="1">
                    <mxGeometry x="50" y="866" width="230" height="66" as="geometry"/>
                </mxCell>
                <mxCell id="qpAeISLTV_BrQSAtecfo-23" value="+ bool backupPower();" style="text;strokeColor=none;fillColor=none;align=left;verticalAlign=top;spacingLeft=4;spacingRight=4;overflow=hidden;rotatable=0;points=[[0,0.5],[1,0.5]];portConstraint=eastwest;rounded=1;" parent="qpAeISLTV_BrQSAtecfo-21" vertex="1">
                    <mxGeometry y="40" width="230" height="26" as="geometry"/>
                </mxCell>
                <mxCell id="qpAeISLTV_BrQSAtecfo-24" value="" style="endArrow=block;dashed=1;endFill=0;endSize=12;html=1;rounded=1;" parent="WIyWlLk6GJQsqaUBKTNV-1" source="zkfFHV4jXpPFQw0GAbJ--6" target="qpAeISLTV_BrQSAtecfo-21" edge="1">
                    <mxGeometry width="160" relative="1" as="geometry">
                        <mxPoint x="90" y="737" as="sourcePoint"/>
                        <mxPoint x="250" y="737" as="targetPoint"/>
                    </mxGeometry>
                </mxCell>
                <mxCell id="qpAeISLTV_BrQSAtecfo-25" value="implements" style="edgeLabel;html=1;align=center;verticalAlign=middle;resizable=0;points=[];rounded=1;" parent="qpAeISLTV_BrQSAtecfo-24" vertex="1" connectable="0">
                    <mxGeometry x="-0.147" y="-1" relative="1" as="geometry">
                        <mxPoint as="offset"/>
                    </mxGeometry>
                </mxCell>
                <mxCell id="qpAeISLTV_BrQSAtecfo-26" value="«interface»&#10;Builder" style="swimlane;fontStyle=1;align=center;verticalAlign=top;childLayout=stackLayout;horizontal=1;startSize=40;horizontalStack=0;resizeParent=1;resizeParentMax=0;resizeLast=0;collapsible=1;marginBottom=0;rounded=1;swimlaneFillColor=default;" parent="WIyWlLk6GJQsqaUBKTNV-1" vertex="1">
                    <mxGeometry x="196" y="100" width="210" height="150" as="geometry"/>
                </mxCell>
                <mxCell id="qpAeISLTV_BrQSAtecfo-27" value="+ Computer get computer;&#10;&#10;+ MotherBoard buildMotherBoard();&#10;+ Keyboard buildKeyboard();&#10;+ Mouse buildMouse();&#10;+  Monitor buildMonitor();" style="text;strokeColor=none;fillColor=none;align=left;verticalAlign=top;spacingLeft=4;spacingRight=4;overflow=hidden;rotatable=0;points=[[0,0.5],[1,0.5]];portConstraint=eastwest;rounded=1;" parent="qpAeISLTV_BrQSAtecfo-26" vertex="1">
                    <mxGeometry y="40" width="210" height="110" as="geometry"/>
                </mxCell>
                <mxCell id="qpAeISLTV_BrQSAtecfo-28" value="ComputerXL Builder" style="swimlane;fontStyle=0;align=center;verticalAlign=top;childLayout=stackLayout;horizontal=1;startSize=26;horizontalStack=0;resizeParent=1;resizeLast=0;collapsible=1;marginBottom=0;rounded=1;shadow=0;strokeWidth=1;swimlaneFillColor=default;" parent="WIyWlLk6GJQsqaUBKTNV-1" vertex="1">
                    <mxGeometry x="150" y="371.5" width="220" height="140" as="geometry">
                        <mxRectangle x="130" y="380" width="160" height="26" as="alternateBounds"/>
                    </mxGeometry>
                </mxCell>
                <mxCell id="qpAeISLTV_BrQSAtecfo-31" value="+ CoolingSystem buildCoolingSystem();&#10;+ UPS buildUPS();" style="text;align=left;verticalAlign=top;spacingLeft=4;spacingRight=4;overflow=hidden;rotatable=0;points=[[0,0.5],[1,0.5]];portConstraint=eastwest;rounded=1;fillColor=none;" parent="qpAeISLTV_BrQSAtecfo-28" vertex="1">
                    <mxGeometry y="26" width="220" height="62" as="geometry"/>
                </mxCell>
                <mxCell id="qpAeISLTV_BrQSAtecfo-32" value="ComputerCS Builder" style="swimlane;fontStyle=0;align=center;verticalAlign=top;childLayout=stackLayout;horizontal=1;startSize=26;horizontalStack=0;resizeParent=1;resizeLast=0;collapsible=1;marginBottom=0;rounded=1;shadow=0;strokeWidth=1;fillColor=default;swimlaneFillColor=default;" parent="WIyWlLk6GJQsqaUBKTNV-1" vertex="1">
                    <mxGeometry x="414" y="368.5" width="220" height="143" as="geometry">
                        <mxRectangle x="130" y="380" width="160" height="26" as="alternateBounds"/>
                    </mxGeometry>
                </mxCell>
                <mxCell id="qpAeISLTV_BrQSAtecfo-35" value="+ CoolingSystem buildCoolingSystem();&#10;" style="text;align=left;verticalAlign=top;spacingLeft=4;spacingRight=4;overflow=hidden;rotatable=0;points=[[0,0.5],[1,0.5]];portConstraint=eastwest;rounded=1;fillColor=none;" parent="qpAeISLTV_BrQSAtecfo-32" vertex="1">
                    <mxGeometry y="26" width="220" height="26" as="geometry"/>
                </mxCell>
                <mxCell id="qpAeISLTV_BrQSAtecfo-36" value="" style="endArrow=block;dashed=1;endFill=0;endSize=12;html=1;rounded=1;" parent="WIyWlLk6GJQsqaUBKTNV-1" source="qpAeISLTV_BrQSAtecfo-28" target="qpAeISLTV_BrQSAtecfo-26" edge="1">
                    <mxGeometry width="160" relative="1" as="geometry">
                        <mxPoint x="330" y="390" as="sourcePoint"/>
                        <mxPoint x="490" y="390" as="targetPoint"/>
                        <Array as="points">
                            <mxPoint x="400" y="290"/>
                        </Array>
                    </mxGeometry>
                </mxCell>
                <mxCell id="qpAeISLTV_BrQSAtecfo-37" value="implements" style="edgeLabel;html=1;align=center;verticalAlign=middle;resizable=0;points=[];rounded=1;" parent="qpAeISLTV_BrQSAtecfo-36" vertex="1" connectable="0">
                    <mxGeometry x="-0.2332" y="3" relative="1" as="geometry">
                        <mxPoint as="offset"/>
                    </mxGeometry>
                </mxCell>
                <mxCell id="qpAeISLTV_BrQSAtecfo-38" value="" style="endArrow=block;dashed=1;endFill=0;endSize=12;html=1;rounded=1;" parent="WIyWlLk6GJQsqaUBKTNV-1" source="qpAeISLTV_BrQSAtecfo-32" target="qpAeISLTV_BrQSAtecfo-26" edge="1">
                    <mxGeometry width="160" relative="1" as="geometry">
                        <mxPoint x="321.818181818182" y="360" as="sourcePoint"/>
                        <mxPoint x="376.36363636363626" y="240" as="targetPoint"/>
                        <Array as="points">
                            <mxPoint x="400" y="290"/>
                        </Array>
                    </mxGeometry>
                </mxCell>
                <mxCell id="qpAeISLTV_BrQSAtecfo-39" value="implements" style="edgeLabel;html=1;align=center;verticalAlign=middle;resizable=0;points=[];rounded=1;" parent="qpAeISLTV_BrQSAtecfo-38" vertex="1" connectable="0">
                    <mxGeometry x="-0.2332" y="3" relative="1" as="geometry">
                        <mxPoint as="offset"/>
                    </mxGeometry>
                </mxCell>
                <mxCell id="qpAeISLTV_BrQSAtecfo-40" value="" style="endArrow=diamondThin;endFill=1;endSize=24;html=1;rounded=1;entryX=0.69;entryY=0.001;entryDx=0;entryDy=0;entryPerimeter=0;" parent="WIyWlLk6GJQsqaUBKTNV-1" source="qpAeISLTV_BrQSAtecfo-32" target="zkfFHV4jXpPFQw0GAbJ--0" edge="1">
                    <mxGeometry width="160" relative="1" as="geometry">
                        <mxPoint x="590" y="450" as="sourcePoint"/>
                        <mxPoint x="750" y="450" as="targetPoint"/>
                    </mxGeometry>
                </mxCell>
                <mxCell id="qpAeISLTV_BrQSAtecfo-41" value="Compositon" style="edgeLabel;html=1;align=center;verticalAlign=middle;resizable=0;points=[];rounded=1;" parent="qpAeISLTV_BrQSAtecfo-40" vertex="1" connectable="0">
                    <mxGeometry x="-0.2916" y="1" relative="1" as="geometry">
                        <mxPoint as="offset"/>
                    </mxGeometry>
                </mxCell>
                <mxCell id="qpAeISLTV_BrQSAtecfo-42" value="" style="endArrow=diamondThin;endFill=1;endSize=24;html=1;rounded=1;" parent="WIyWlLk6GJQsqaUBKTNV-1" source="qpAeISLTV_BrQSAtecfo-28" target="zkfFHV4jXpPFQw0GAbJ--0" edge="1">
                    <mxGeometry width="160" relative="1" as="geometry">
                        <mxPoint x="279.9974683544303" y="480" as="sourcePoint"/>
                        <mxPoint x="231.50864197530854" y="577" as="targetPoint"/>
                    </mxGeometry>
                </mxCell>
                <mxCell id="qpAeISLTV_BrQSAtecfo-43" value="Compositon" style="edgeLabel;html=1;align=center;verticalAlign=middle;resizable=0;points=[];rounded=1;" parent="qpAeISLTV_BrQSAtecfo-42" vertex="1" connectable="0">
                    <mxGeometry x="-0.2916" y="1" relative="1" as="geometry">
                        <mxPoint as="offset"/>
                    </mxGeometry>
                </mxCell>
                <mxCell id="qpAeISLTV_BrQSAtecfo-46" value="Director" style="swimlane;fontStyle=1;align=center;verticalAlign=top;childLayout=stackLayout;horizontal=1;startSize=26;horizontalStack=0;resizeParent=1;resizeLast=0;collapsible=1;marginBottom=0;rounded=1;shadow=0;strokeWidth=1;fontSize=14;swimlaneFillColor=default;" parent="WIyWlLk6GJQsqaUBKTNV-1" vertex="1">
                    <mxGeometry x="600" y="-96" width="220" height="143" as="geometry">
                        <mxRectangle x="130" y="380" width="160" height="26" as="alternateBounds"/>
                    </mxGeometry>
                </mxCell>
                <mxCell id="qpAeISLTV_BrQSAtecfo-47" value="- Builder _builder;" style="text;align=left;verticalAlign=top;spacingLeft=4;spacingRight=4;overflow=hidden;rotatable=0;points=[[0,0.5],[1,0.5]];portConstraint=eastwest;rounded=1;" parent="qpAeISLTV_BrQSAtecfo-46" vertex="1">
                    <mxGeometry y="26" width="220" height="24" as="geometry"/>
                </mxCell>
                <mxCell id="qpAeISLTV_BrQSAtecfo-48" value="" style="line;html=1;strokeWidth=1;align=left;verticalAlign=middle;spacingTop=-1;spacingLeft=3;spacingRight=3;rotatable=0;labelPosition=right;points=[];portConstraint=eastwest;rounded=1;" parent="qpAeISLTV_BrQSAtecfo-46" vertex="1">
                    <mxGeometry y="50" width="220" height="8" as="geometry"/>
                </mxCell>
                <mxCell id="qpAeISLTV_BrQSAtecfo-49" value="+ changeBuilder(Builder builder);&#10;+ Computer makeComputer();" style="text;align=left;verticalAlign=top;spacingLeft=4;spacingRight=4;overflow=hidden;rotatable=0;points=[[0,0.5],[1,0.5]];portConstraint=eastwest;rounded=1;" parent="qpAeISLTV_BrQSAtecfo-46" vertex="1">
                    <mxGeometry y="58" width="220" height="62" as="geometry"/>
                </mxCell>
                <mxCell id="qpAeISLTV_BrQSAtecfo-50" value="" style="endArrow=diamondThin;endFill=1;endSize=24;html=1;rounded=1;fontSize=14;" parent="WIyWlLk6GJQsqaUBKTNV-1" source="qpAeISLTV_BrQSAtecfo-46" target="qpAeISLTV_BrQSAtecfo-26" edge="1">
                    <mxGeometry width="160" relative="1" as="geometry">
                        <mxPoint x="550" y="160" as="sourcePoint"/>
                        <mxPoint x="710" y="160" as="targetPoint"/>
                        <Array as="points">
                            <mxPoint x="710" y="170"/>
                        </Array>
                    </mxGeometry>
                </mxCell>
                <mxCell id="qpAeISLTV_BrQSAtecfo-52" style="edgeStyle=orthogonalEdgeStyle;rounded=1;orthogonalLoop=1;jettySize=auto;html=1;entryX=-0.006;entryY=-0.05;entryDx=0;entryDy=0;entryPerimeter=0;fontSize=11;fontColor=#000000;" parent="WIyWlLk6GJQsqaUBKTNV-1" source="qpAeISLTV_BrQSAtecfo-51" target="qpAeISLTV_BrQSAtecfo-49" edge="1">
                    <mxGeometry relative="1" as="geometry"/>
                </mxCell>
                <mxCell id="qpAeISLTV_BrQSAtecfo-53" style="edgeStyle=orthogonalEdgeStyle;rounded=1;orthogonalLoop=1;jettySize=auto;html=1;entryX=0.45;entryY=0.005;entryDx=0;entryDy=0;entryPerimeter=0;fontSize=11;fontColor=#000000;" parent="WIyWlLk6GJQsqaUBKTNV-1" source="qpAeISLTV_BrQSAtecfo-51" target="qpAeISLTV_BrQSAtecfo-26" edge="1">
                    <mxGeometry relative="1" as="geometry"/>
                </mxCell>
                <mxCell id="qpAeISLTV_BrQSAtecfo-54" style="edgeStyle=orthogonalEdgeStyle;rounded=1;orthogonalLoop=1;jettySize=auto;html=1;fontSize=11;fontColor=#000000;" parent="WIyWlLk6GJQsqaUBKTNV-1" source="qpAeISLTV_BrQSAtecfo-51" target="qpAeISLTV_BrQSAtecfo-32" edge="1">
                    <mxGeometry relative="1" as="geometry">
                        <mxPoint x="200" y="370" as="targetPoint"/>
                        <Array as="points">
                            <mxPoint x="490" y="80"/>
                            <mxPoint x="490" y="80"/>
                        </Array>
                    </mxGeometry>
                </mxCell>
                <mxCell id="qpAeISLTV_BrQSAtecfo-51" value="&lt;div style=&quot;font-family: &amp;#34;consolas&amp;#34; , &amp;#34;courier new&amp;#34; , monospace ; line-height: 19px ; font-size: 11px&quot;&gt;&lt;div&gt;void main() {&lt;/div&gt;&lt;div&gt;&amp;nbsp; // first create CS computer&lt;/div&gt;&lt;div&gt;&amp;nbsp; Builder computerCSBuilder = ComputerCSBuilder();&lt;/div&gt;&lt;div&gt;&amp;nbsp; Director director = Director(computerCSBuilder);&lt;/div&gt;&lt;div&gt;&amp;nbsp; Computer computer1 = director.makeComputer();&lt;/div&gt;&lt;div&gt;&amp;nbsp; print(computer1);&lt;/div&gt;&lt;div&gt;}&lt;/div&gt;&lt;/div&gt;" style="shape=note;whiteSpace=wrap;html=1;backgroundOutline=1;darkOpacity=0.05;fontSize=14;align=left;rounded=1;" parent="WIyWlLk6GJQsqaUBKTNV-1" vertex="1">
                    <mxGeometry x="130" y="-108" width="320" height="133" as="geometry"/>
                </mxCell>
                <mxCell id="qpAeISLTV_BrQSAtecfo-58" value="" style="endArrow=none;html=1;rounded=1;fontSize=11;fontColor=#000000;" parent="WIyWlLk6GJQsqaUBKTNV-1" edge="1">
                    <mxGeometry width="50" height="50" relative="1" as="geometry">
                        <mxPoint y="1200" as="sourcePoint"/>
                        <mxPoint y="-170" as="targetPoint"/>
                    </mxGeometry>
                </mxCell>
                <mxCell id="qpAeISLTV_BrQSAtecfo-59" value="" style="endArrow=none;html=1;rounded=1;fontSize=11;fontColor=#000000;" parent="WIyWlLk6GJQsqaUBKTNV-1" edge="1">
                    <mxGeometry width="50" height="50" relative="1" as="geometry">
                        <mxPoint x="840" y="1200" as="sourcePoint"/>
                        <mxPoint x="840" y="-170" as="targetPoint"/>
                    </mxGeometry>
                </mxCell>
            </root>
        </mxGraphModel>
    </diagram>
</mxfile>